# xmcd CD database file
#
# Track frame offsets:
#	150
#	11930
#	25980
#	36732
#	49397
#	63007
#	74587
#	85480
#	98675
#	113137
#	126787
#	138772
#	153057
#	164432
#	177955
#	190212
#	198417
#	208360
#	223232
#	235142
#
# Disc length: 3291 seconds
#
# Revision: 3
# Processed by: cddbd v1.5.2PL0 Copyright (c) Steve Scherf et al.
# Submitted via: CDex 1.51
#
DISCID=2c0cd914
DTITLE=Willie Nelson - WILLIE NELSON - Face Of A Fighter
DYEAR=1900
DGENRE=Country
TTITLE0=Night Life
TTITLE1=So Much To Do
TTITLE2=I Feel Sorry For Him
TTITLE3=Any Old Arms Won´t Do
TTITLE4=A Moment Isn´t Very Long
TTITLE5=Is There Something On Your Mind
TTITLE6=Blame It On The Times
TTITLE7=I Just Don´t Understand
TTITLE8=Rainy Day Blues
TTITLE9=You´ll Always Have Someone
TTITLE10=Follow Me Around
TTITLE11=Will You Remember Mine
TTITLE12=Suffering In Silence
TTITLE13=Everything But You
TTITLE14=I Can´t Find The Time
TTITLE15=You Wouldn´t Cross The Street To Say Goodbye
TTITLE16=I Didn´t Sleep A Wink
TTITLE17=Face Of A Fighter
TTITLE18=End Of Understanding
TTITLE19=I Hope So
EXTD=
EXTT0=
EXTT1=
EXTT2=
EXTT3=
EXTT4=
EXTT5=
EXTT6=
EXTT7=
EXTT8=
EXTT9=
EXTT10=
EXTT11=
EXTT12=
EXTT13=
EXTT14=
EXTT15=
EXTT16=
EXTT17=
EXTT18=
EXTT19=
PLAYORDER=
